<?xml version="1.0" encoding="UTF-8" standalone="no"?>
<!DOCTYPE svg PUBLIC "-//W3C//DTD SVG 1.1//EN" "http://www.w3.org/Graphics/SVG/1.1/DTD/svg11.dtd">
<!-- Generato da Microsoft Visio, esportazione SVG cie_onboarding_e_direzioni_trust_chain.svg cie_onboarding_e_direzioni_trust_chain -->
<svg xmlns="http://www.w3.org/2000/svg" xmlns:xlink="http://www.w3.org/1999/xlink" xmlns:ev="http://www.w3.org/2001/xml-events"
		xmlns:v="http://schemas.microsoft.com/visio/2003/SVGExtensions/" width="5.83214in" height="8.67468in"
		viewBox="0 0 419.914 624.577" xml:space="preserve" color-interpolation-filters="sRGB" class="st21">
	<v:documentProperties v:langID="1040" v:metric="true" v:viewMarkup="false">
		<v:userDefs>
			<v:ud v:nameU="msvNoAutoConnect" v:val="VT0(1):26"/>
			<v:ud v:nameU="visV14CFF" v:prompt="" v:val="VT0(1):26"/>
			<v:ud v:nameU="visFlowchartType" v:prompt="" v:val="VT4(CrossFunctional)"/>
		</v:userDefs>
	</v:documentProperties>

	<style type="text/css">
	<![CDATA[
		.st1 {fill:#003399;stroke:none;stroke-linecap:butt;stroke-width:2.98754}
		.st2 {fill:none;stroke:none;stroke-linecap:round;stroke-linejoin:round;stroke-width:0.75}
		.st3 {fill:#003399;font-family:Calibri;font-size:1.5em;font-style:italic;font-weight:bold}
		.st4 {font-size:1em}
		.st5 {fill:#000000;font-family:Calibri;font-size:1.00001em}
		.st6 {fill:#612621;font-family:Calibri;font-size:1.5em;font-style:italic;font-weight:bold}
		.st7 {fill:#612621;stroke:#000000;stroke-linecap:round;stroke-linejoin:round;stroke-width:0.24}
		.st8 {fill:#ffffff;stroke:none;stroke-linecap:butt;stroke-width:0.0612}
		.st9 {fill:#000000;font-family:Calibri;font-size:1.5em;font-style:italic;font-weight:bold}
		.st10 {fill:#000000;stroke:none;stroke-linecap:butt;stroke-width:0.75}
		.st11 {fill:#ffffff;stroke:none;stroke-linecap:round;stroke-linejoin:round;stroke-width:0.24}
		.st12 {fill:#000000;stroke:none;stroke-linecap:butt;stroke-width:0.612}
		.st13 {fill:#ffffff;stroke:#000000;stroke-linecap:round;stroke-linejoin:round;stroke-width:2}
		.st14 {fill:#f8cfad;stroke:#000000;stroke-linecap:round;stroke-linejoin:round;stroke-width:0.24}
		.st15 {fill:#fcebdd;stroke:#000000;stroke-linecap:round;stroke-linejoin:round;stroke-width:0.24}
		.st16 {fill:#d3e0ba;stroke:#000000;stroke-linecap:round;stroke-linejoin:round;stroke-width:0.24}
		.st17 {fill:#ebf1df;stroke:#000000;stroke-linecap:round;stroke-linejoin:round;stroke-width:0.24}
		.st18 {fill:#92d050;stroke:none;stroke-linecap:round;stroke-linejoin:round;stroke-width:0.24}
		.st19 {fill:#ffffff;font-family:Calibri;font-size:2.50001em;font-style:italic}
		.st20 {fill:#d9958f;stroke:none;stroke-linecap:round;stroke-linejoin:round;stroke-width:0.24}
		.st21 {fill:none;fill-rule:evenodd;font-size:12px;overflow:visible;stroke-linecap:square;stroke-miterlimit:3}
	]]>
	</style>

	<g v:mID="16" v:index="2" v:groupContext="foregroundPage">
		<title>cie_onboarding_e_direzioni_trust_chain</title>
		<v:pageProperties v:drawingScale="0.0393701" v:pageScale="0.0393701" v:drawingUnits="24" v:shadowOffsetX="8.50394"
				v:shadowOffsetY="-8.50394"/>
		<g id="group11-1" transform="translate(197.447,-466.568)" v:mID="11" v:groupContext="group">
			<title>Foglio.11</title>
			<g id="shape12-2" v:mID="12" v:groupContext="shape">
				<title>Foglio.12</title>
				<path d="M19.31 614.11 L21.64 616.37 C21.64 616.37 18.78 620.5 15.72 620.58 C15.79 620.58 15.74 608.95 15.73 606.13
							 C17.76 605.46 19.24 603.61 19.24 601.41 C19.24 598.64 16.93 596.4 14.09 596.4 C11.23 596.4 8.92 598.64
							 8.92 601.41 C8.92 603.57 10.36 605.41 12.35 606.11 L12.36 620.53 C8.67 620.28 6.54 616.73 6.54 616.73
							 L9.03 614.32 L0 612.99 L1.37 621.75 L3.77 619.42 C5.85 621.1 8.2 624.58 13.85 624.58 C20.96 624.4 22.6
							 620.57 24.42 619.07 L27.05 621.63 L28.35 612.79 L19.31 614.11 ZM11.42 601.32 C11.42 599.9 12.62 598.74
							 14.08 598.74 C15.55 598.74 16.75 599.9 16.75 601.32 C16.75 602.75 15.55 603.91 14.08 603.91 C12.62 603.91
							 11.42 602.75 11.42 601.32 Z" class="st1"/>
			</g>
		</g>
		<g id="shape13-4" v:mID="13" v:groupContext="shape" transform="translate(151.376,-495.317)">
			<title>Foglio.13</title>
			<desc>Trust Anchor</desc>
			<v:textBlock v:margins="rect(4,4,4,4)" v:tabSpace="42.5197"/>
			<v:textRect cx="56.6929" cy="603.317" width="113.39" height="42.5197"/>
			<rect x="0" y="582.057" width="113.386" height="42.5197" class="st2"/>
			<text x="37.66" y="597.92" class="st3" v:langID="1040"><v:paragraph v:horizAlign="1"/><v:tabList/>Trust<v:newlineChar/><tspan
						x="30.13" dy="1.2em" class="st4">Anchor</tspan></text>		</g>
		<g id="shape14-8" v:mID="14" v:groupContext="shape" transform="translate(144.408,-423.821)">
			<title>Foglio.14</title>
			<desc>MinInt / Agid (Federation Authority)</desc>
			<v:textBlock v:margins="rect(4,4,4,4)" v:tabSpace="42.5197"/>
			<v:textRect cx="66.0827" cy="603.317" width="132.17" height="42.5197"/>
			<rect x="0" y="582.057" width="132.165" height="42.5197" class="st2"/>
			<text x="33.89" y="599.72" class="st5" v:langID="1040"><v:paragraph v:horizAlign="1"/><v:tabList/>MinInt / Agid<v:newlineChar/><tspan
						x="11.39" dy="1.2em" class="st4">(Federation Authority)</tspan></text>		</g>
		<g id="shape15-12" v:mID="15" v:groupContext="shape" transform="translate(152.951,-354.53)">
			<title>Foglio.15</title>
			<desc>Intermediate Entities</desc>
			<v:textBlock v:margins="rect(4,4,4,4)" v:tabSpace="42.5197"/>
			<v:textRect cx="56.6929" cy="603.317" width="113.39" height="42.5197"/>
			<rect x="0" y="582.057" width="113.386" height="42.5197" class="st2"/>
			<text x="7.93" y="597.92" class="st6" v:langID="1040"><v:paragraph v:horizAlign="1"/><v:tabList/>Intermediate<v:newlineChar/><tspan
						x="28.93" dy="1.2em" class="st4">Entities</tspan></text>		</g>
		<g id="group27-16" transform="translate(197.203,-316.262)" v:mID="27" v:groupContext="group">
			<title>Foglio.27</title>
			<g id="shape16-17" v:mID="16" v:groupContext="shape">
				<title>Stella a 16 punte</title>
				<v:userDefs>
					<v:ud v:nameU="CtrlYOffset" v:prompt="" v:val="VT0(0.47244094488189):24"/>
					<v:ud v:nameU="CtrlXOffset" v:prompt="" v:val="VT0(0.093974346793539):24"/>
					<v:ud v:nameU="CtrlAngle" v:prompt="" v:val="VT0(0.19634954084936):26"/>
					<v:ud v:nameU="ElbowDist" v:prompt="" v:val="VT0(0.48169661017716):24"/>
					<v:ud v:nameU="visVersion" v:prompt="" v:val="VT0(15):26"/>
					<v:ud v:nameU="CtrlYOffset" v:prompt="" v:val="VT0(0.19685039665718):1"/>
					<v:ud v:nameU="CtrlXOffset" v:prompt="" v:val="VT0(0.039155978418705):1"/>
					<v:ud v:nameU="ElbowDist" v:prompt="" v:val="VT0(0.20070692392146):1"/>
				</v:userDefs>
				<path d="M17.72 589.14 L20.54 592.69 L24.5 590.49 L25.75 594.85 L30.24 594.33 L29.73 598.83 L34.08 600.08 L31.89
							 604.04 L35.43 606.86 L31.89 609.68 L34.08 613.64 L29.73 614.89 L30.24 619.39 L25.75 618.88 L24.5 623.23
							 L20.54 621.03 L17.72 624.58 L14.9 621.03 L10.94 623.23 L9.69 618.88 L5.19 619.39 L5.7 614.89 L1.35 613.64
							 L3.54 609.68 L0 606.86 L3.54 604.04 L1.35 600.08 L5.7 598.83 L5.19 594.33 L9.69 594.85 L10.94 590.49
							 L14.9 592.69 L17.72 589.14 Z" class="st7"/>
			</g>
			<g id="group23-19" transform="translate(633.546,598.002) rotate(90)" v:mID="23" v:groupContext="group">
				<title>Foglio.23</title>
				<g id="group24-20" v:mID="24" v:groupContext="group">
					<title>Foglio.24</title>
					<g id="shape25-21" v:mID="25" v:groupContext="shape" transform="translate(6.66465,1231.66) scale(1,-1)">
						<title>Foglio.25</title>
						<path d="M5.83 624.46 C5.18 624.34 4.51 624.05 3.98 623.64 C3.59 623.34 0.2 619.94 0.09 619.72 L0 619.57
									 L0.15 619.6 C0.77 619.7 1.5 619.67 2.21 619.49 L2.57 619.4 L3.93 620.75 C5.14 621.95 5.33 622.13
									 5.59 622.25 C6.51 622.67 7.44 622.52 8.18 621.82 C8.77 621.27 8.96 620.82 8.96 620.08 C8.96
									 619.55 8.88 619.24 8.63 618.86 C8.56 618.75 7.72 617.88 6.76 616.92 C5.13 615.3 5.01 615.19
									 4.71 615.05 C4.16 614.81 3.69 614.78 3.1 614.94 C2.76 615.03 2.56 615.14 2.25 615.4 C1.81 615.77
									 1.57 615.85 1.18 615.77 C0.85 615.69 0.5 615.34 0.43 615.01 C0.34 614.59 0.45 614.29 0.84 613.92
									 C1.71 613.1 3.01 612.68 4.21 612.82 C5.01 612.92 5.74 613.21 6.36 613.68 C6.81 614.02 10.04
									 617.28 10.27 617.63 C10.54 618.04 10.79 618.6 10.91 619.06 C11.05 619.63 11.05 620.62 10.91
									 621.15 C10.52 622.59 9.37 623.82 7.96 624.3 C7.35 624.52 6.49 624.58 5.83 624.46 Z"
								class="st8"/>
					</g>
					<g id="shape26-23" v:mID="26" v:groupContext="shape" transform="translate(0,1237.33) scale(1,-1)">
						<title>Foglio.26</title>
						<path d="M7 624.48 C6.37 624.4 5.68 624.12 5.11 623.74 C4.78 623.52 1.51 620.28 1.17 619.83 C0.16 618.52
									 0 616.75 0.76 615.25 C1.32 614.15 2.44 613.24 3.63 612.93 C4.24 612.76 5.14 612.75 5.74 612.9
									 C6.21 613.02 6.77 613.27 7.18 613.55 C7.71 613.9 11.38 617.61 11.29 617.7 C11.28 617.71 11.09
									 617.7 10.86 617.67 C10.36 617.61 9.66 617.67 9.11 617.82 L8.76 617.92 L7.41 616.58 C6.64 615.81
									 5.98 615.19 5.86 615.12 C5.48 614.91 5.19 614.84 4.7 614.85 C3.98 614.85 3.53 615.06 2.99 615.63
									 C2.29 616.37 2.14 617.3 2.56 618.22 C2.69 618.49 2.87 618.69 4.45 620.27 C5.97 621.8 6.24 622.05
									 6.51 622.19 C7.08 622.49 7.71 622.55 8.28 622.35 C8.63 622.23 8.77 622.15 9.07 621.9 C9.51 621.53
									 9.75 621.46 10.14 621.54 C10.47 621.61 10.82 621.96 10.89 622.29 C10.98 622.71 10.87 623.01
									 10.48 623.38 C10.19 623.66 9.69 623.99 9.32 624.15 C8.68 624.43 7.68 624.58 7 624.48 Z"
								class="st8"/>
					</g>
				</g>
			</g>
		</g>
		<g id="shape28-25" v:mID="28" v:groupContext="shape" transform="translate(138.148,-270.908)">
			<title>Foglio.28</title>
			<desc>Soggetto Aggregatore (Federation Authority)</desc>
			<v:textBlock v:margins="rect(4,4,4,4)" v:tabSpace="42.5197"/>
			<v:textRect cx="76.8898" cy="603.317" width="153.78" height="42.5197"/>
			<rect x="0" y="582.057" width="153.78" height="42.5197" class="st2"/>
			<text x="55.15" y="592.52" class="st5" v:langID="1040"><v:paragraph v:horizAlign="1"/><v:tabList/>Soggetto<v:newlineChar/><tspan
						x="46.74" dy="1.2em" class="st4">Aggregatore<v:newlineChar/></tspan><tspan x="22.2" dy="1.2em" class="st4">(Federation Authority)</tspan></text>		</g>
		<g id="shape29-30" v:mID="29" v:groupContext="shape" transform="translate(157.299,-195.79)">
			<title>Foglio.29</title>
			<desc>Leaf Entities</desc>
			<v:textBlock v:margins="rect(4,4,4,4)" v:tabSpace="42.5197"/>
			<v:textRect cx="56.6929" cy="603.317" width="113.39" height="42.5197"/>
			<rect x="0" y="582.057" width="113.386" height="42.5197" class="st2"/>
			<text x="40.87" y="597.92" class="st9" v:langID="1040"><v:paragraph v:horizAlign="1"/><v:tabList/>Leaf<v:newlineChar/><tspan
						x="28.93" dy="1.2em" class="st4">Entities</tspan></text>		</g>
		<g id="group73-34" transform="translate(160.724,-156.762)" v:mID="73" v:groupContext="group">
			<title>Foglio.73</title>
			<g id="group56-35" transform="translate(1.39888E-14,-7.54389)" v:mID="56" v:groupContext="group">
				<title>Foglio.56</title>
				<g id="group49-36" v:mID="49" v:groupContext="group">
					<title>Foglio.49</title>
					<g id="group50-37" v:mID="50" v:groupContext="group">
						<title>Foglio.50</title>
						<g id="shape51-38" v:mID="51" v:groupContext="shape">
							<title>Foglio.51</title>
							<path d="M25.67 613.9 C24.05 614 21.91 615.63 19.85 616.56 C17.32 617.71 13.39 616.79 13.39 616.79 C13.99
										 616.5 16.46 615.92 16.96 615.7 C19.6 614.54 19.37 612.11 18.12 612.13 C16.45 612.16 15.48
										 612.57 12.16 613.02 C9.65 613.36 6.68 613.24 5.25 613.78 C3.24 614.55 0 619.72 0 619.72
										 L5.01 624.58 C5.01 624.58 8.11 621.52 9.62 621.52 C13.06 621.52 13.2 621.48 16.4 621.3 C17.75
										 621.23 18.04 621.17 18.81 620.91 C22.95 619.51 27.4 615.79 27.48 615.34 C27.67 614.3 26.53
										 613.85 25.67 613.9 Z" class="st10"/>
						</g>
						<g id="shape52-40" v:mID="52" v:groupContext="shape" transform="translate(18.3633,-17.4062)">
							<title>Foglio.52</title>
							<path d="M0.39 623.8 C0.48 623.81 0.57 623.78 0.62 623.7 C1.77 621.85 3.51 619.6 5.77 618.08 C3.66 620.11
										 2.17 622.24 1.26 624.25 C1.24 624.31 1.24 624.38 1.27 624.44 C1.3 624.5 1.36 624.54 1.43
										 624.55 C1.57 624.57 1.73 624.58 1.88 624.58 C3.33 624.58 4.77 623.69 5.73 622.95 C6.82 622.11
										 7.86 620.99 8.53 619.97 C9.52 618.43 10.15 616.53 10.28 614.63 C10.28 614.57 10.26 614.51
										 10.22 614.46 C10.18 614.42 10.12 614.4 10.06 614.4 C8.61 614.5 5.03 614.97 2.94 617.06 C2.87
										 617.12 2.1 617.83 1.38 618.97 C0.4 620.52 0 622.13 0.23 623.62 C0.24 623.71 0.31 623.78
										 0.39 623.8 Z" class="st10"/>
						</g>
						<g id="shape53-42" v:mID="53" v:groupContext="shape" transform="translate(8.68958,-14.4154)">
							<title>Foglio.53</title>
							<path d="M4.34 623.03 C5.25 623.74 6.63 624.58 8.01 624.58 C8.16 624.58 8.3 624.57 8.44 624.55 C8.5 624.54
										 8.56 624.5 8.59 624.45 C8.62 624.39 8.62 624.33 8.6 624.27 C7.74 622.35 6.31 620.32 4.3
										 618.38 C6.46 619.84 8.12 621.98 9.21 623.74 C9.26 623.81 9.34 623.85 9.42 623.83 C9.51 623.82
										 9.57 623.75 9.58 623.67 C9.8 622.25 9.42 620.71 8.49 619.23 C7.8 618.15 7.07 617.47 7 617.41
										 C5 615.42 1.59 614.98 0.22 614.88 C0.16 614.88 0.1 614.9 0.06 614.94 C0.02 614.98 0 615.04
										 0 615.09 C0.13 616.91 0.73 618.72 1.67 620.18 C2.31 621.16 3.31 622.23 4.34 623.03 Z"
									class="st10"/>
						</g>
						<g id="shape54-44" v:mID="54" v:groupContext="shape" transform="translate(12.107,-21.822)">
							<title>Foglio.54</title>
							<path d="M2.89 623.55 C3.5 624.02 4.41 624.58 5.33 624.58 C5.43 624.58 5.53 624.57 5.62 624.56 C5.66
										 624.55 5.7 624.53 5.72 624.49 C5.74 624.45 5.74 624.41 5.73 624.37 C5.15 623.09 4.21 621.74
										 2.86 620.45 C4.3 621.42 5.41 622.84 6.14 624.02 C6.17 624.07 6.22 624.09 6.28 624.08 C6.33
										 624.07 6.37 624.03 6.38 623.97 C6.53 623.02 6.28 622 5.65 621.01 C5.2 620.3 4.71 619.85
										 4.66 619.8 C3.33 618.48 1.06 618.18 0.15 618.12 C0.11 618.12 0.07 618.13 0.04 618.16 C0.01
										 618.18 0 618.22 0 618.26 C0.09 619.47 0.48 620.67 1.12 621.65 C1.54 622.3 2.2 623.01 2.89
										 623.55 Z" class="st10"/>
						</g>
					</g>
				</g>
				<g id="shape55-46" v:mID="55" v:groupContext="shape" transform="translate(3.01554,-13.9801)">
					<title>Rettangolo</title>
					<v:userDefs>
						<v:ud v:nameU="visVersion" v:val="VT0(15):26"/>
					</v:userDefs>
					<rect x="0" y="605.353" width="25.6321" height="19.2241" class="st11"/>
				</g>
				<g id="group33-48" transform="translate(6.00242,-13.7274)" v:mID="33" v:groupContext="group">
					<title>Foglio.33</title>
					<g id="shape34-49" v:mID="34" v:groupContext="shape">
						<title>Foglio.34</title>
						<path d="M0 624.58 C0 622.19 1.31 620.11 3.25 619.02 C4.14 619.64 5.22 620.02 6.39 620.02 C7.56 620.02 8.63
									 619.64 9.52 619.02 C11.46 620.11 12.77 622.19 12.77 624.58 L0 624.58 ZM6.39 619.1 C3.87 619.1
									 1.82 617.06 1.82 614.54 C1.82 612.02 3.87 609.98 6.39 609.98 C8.9 609.98 10.95 612.02 10.95
									 614.54 C10.95 617.06 8.9 619.1 6.39 619.1 Z" class="st12"/>
					</g>
				</g>
			</g>
			<g id="shape70-51" v:mID="70" v:groupContext="shape" transform="translate(36.3189,0)">
				<title>Foglio.70</title>
				<desc>Attribute Authority</desc>
				<v:textBlock v:margins="rect(4,4,4,4)" v:tabSpace="42.5197"/>
				<v:textRect cx="76.8898" cy="603.317" width="153.78" height="42.5197"/>
				<rect x="0" y="582.057" width="153.78" height="42.5197" class="st2"/>
				<text x="4" y="606.92" class="st5" v:langID="1040"><v:paragraph/><v:tabList/>Attribute Authority</text>			</g>
		</g>
		<g id="group75-54" transform="translate(162.053,-91.2252)" v:mID="75" v:groupContext="group">
			<title>Foglio.75</title>
			<g id="group69-55" transform="translate(2.19824E-14,-8.18672)" v:mID="69" v:groupContext="group">
				<title>Foglio.69</title>
				<g id="group60-56" transform="translate(0,-6.3263)" v:mID="60" v:groupContext="group">
					<title>Foglio.60</title>
					<g id="shape59-57" v:mID="59" v:groupContext="shape">
						<title>Rettangolo</title>
						<v:userDefs>
							<v:ud v:nameU="visVersion" v:val="VT0(15):26"/>
						</v:userDefs>
						<rect x="0" y="612.373" width="10.9428" height="12.2043" class="st13"/>
					</g>
					<g id="group57-59" transform="translate(1.18669,-1.17349)" v:mID="57" v:groupContext="group">
						<title>Foglio.57</title>
						<g id="shape58-60" v:mID="58" v:groupContext="shape">
							<title>Foglio.58</title>
							<path d="M0 624.58 C0 622.95 0.9 621.53 2.22 620.78 C2.83 621.2 3.57 621.46 4.37 621.46 C5.16 621.46
										 5.9 621.2 6.51 620.78 C7.83 621.53 8.73 622.95 8.73 624.58 L0 624.58 ZM4.36 620.84 C2.64
										 620.84 1.25 619.44 1.25 617.72 C1.25 616 2.64 614.6 4.36 614.6 C6.09 614.6 7.48 616 7.48
										 617.72 C7.48 619.44 6.09 620.84 4.36 620.84 Z" class="st12"/>
						</g>
					</g>
				</g>
				<g id="group61-62" transform="translate(10.7718,-11.3136)" v:mID="61" v:groupContext="group">
					<title>Foglio.61</title>
					<g id="shape62-63" v:mID="62" v:groupContext="shape">
						<title>Rettangolo</title>
						<v:userDefs>
							<v:ud v:nameU="visVersion" v:val="VT0(15):26"/>
						</v:userDefs>
						<rect x="0" y="612.373" width="10.9428" height="12.2043" class="st13"/>
					</g>
					<g id="group63-65" transform="translate(1.18669,-1.17349)" v:mID="63" v:groupContext="group">
						<title>Foglio.63</title>
						<g id="shape64-66" v:mID="64" v:groupContext="shape">
							<title>Foglio.64</title>
							<path d="M0 624.58 C0 622.95 0.9 621.53 2.22 620.78 C2.83 621.2 3.57 621.46 4.37 621.46 C5.16 621.46
										 5.9 621.2 6.51 620.78 C7.83 621.53 8.73 622.95 8.73 624.58 L0 624.58 ZM4.36 620.84 C2.64
										 620.84 1.25 619.44 1.25 617.72 C1.25 616 2.64 614.6 4.36 614.6 C6.09 614.6 7.48 616 7.48
										 617.72 C7.48 619.44 6.09 620.84 4.36 620.84 Z" class="st12"/>
						</g>
					</g>
				</g>
				<g id="group65-68" transform="translate(8.2071,0)" v:mID="65" v:groupContext="group">
					<title>Foglio.65</title>
					<g id="shape66-69" v:mID="66" v:groupContext="shape">
						<title>Rettangolo</title>
						<v:userDefs>
							<v:ud v:nameU="visVersion" v:val="VT0(15):26"/>
						</v:userDefs>
						<rect x="0" y="612.373" width="10.9428" height="12.2043" class="st13"/>
					</g>
					<g id="group67-71" transform="translate(1.18669,-1.17349)" v:mID="67" v:groupContext="group">
						<title>Foglio.67</title>
						<g id="shape68-72" v:mID="68" v:groupContext="shape">
							<title>Foglio.68</title>
							<path d="M0 624.58 C0 622.95 0.9 621.53 2.22 620.78 C2.83 621.2 3.57 621.46 4.37 621.46 C5.16 621.46
										 5.9 621.2 6.51 620.78 C7.83 621.53 8.73 622.95 8.73 624.58 L0 624.58 ZM4.36 620.84 C2.64
										 620.84 1.25 619.44 1.25 617.72 C1.25 616 2.64 614.6 4.36 614.6 C6.09 614.6 7.48 616 7.48
										 617.72 C7.48 619.44 6.09 620.84 4.36 620.84 Z" class="st12"/>
						</g>
					</g>
				</g>
			</g>
			<g id="shape72-74" v:mID="72" v:groupContext="shape" transform="translate(34.1162,0)">
				<title>Foglio.72</title>
				<desc>OpenID Provider</desc>
				<v:textBlock v:margins="rect(4,4,4,4)" v:tabSpace="42.5197"/>
				<v:textRect cx="76.8898" cy="603.317" width="153.78" height="42.5197"/>
				<rect x="0" y="582.057" width="153.78" height="42.5197" class="st2"/>
				<text x="4" y="606.92" class="st5" v:langID="1040"><v:paragraph/><v:tabList/>OpenID Provider</text>			</g>
		</g>
		<g id="group78-77" transform="translate(71.0612,-99.4119)" v:mID="78" v:groupContext="group">
			<title>Foglio.78</title>
			<g id="group1-78" transform="translate(-7.99361E-15,-216.523)" v:mID="1" v:groupContext="group">
				<v:userDefs>
					<v:ud v:nameU="ArcHeight" v:prompt="" v:val="VT0(0.88582677165354):24"/>
					<v:ud v:nameU="visVersion" v:prompt="" v:val="VT0(15):26"/>
					<v:ud v:nameU="ArcHeight" v:prompt="" v:val="VT0(2.341841784565):1"/>
				</v:userDefs>
				<title>Freccia curva a destra</title>
				<g id="shape2-79" v:mID="2" v:groupContext="shape">
					<title>Foglio.2</title>
					<v:userDefs>
						<v:ud v:nameU="BarWidth" v:prompt="" v:val="VT0(0.19685039370079):24"/>
						<v:ud v:nameU="ArrowTipY" v:prompt="" v:val="VT0(0.19685039370079):24"/>
						<v:ud v:nameU="ArcHeight" v:prompt="" v:val="VT0(0.88582677165354):24"/>
						<v:ud v:nameU="FillForegnd" v:prompt="" v:val="VT5(1)"/>
						<v:ud v:nameU="BarWidth" v:prompt="" v:val="VT0(0.47244085):1"/>
						<v:ud v:nameU="ArrowTipY" v:prompt="" v:val="VT0(0.393700795):1"/>
						<v:ud v:nameU="ArcHeight" v:prompt="" v:val="VT0(2.341841784565):1"/>
						<v:ud v:nameU="FillForegnd" v:prompt="" v:val="VT5(#fcebdd)"/>
					</v:userDefs>
					<path d="M64.92 410.61 L64.92 444.63 A64.9108 84.2939 -180 0 0 0 528.93 L0 494.92 A64.9108 84.2939 0 0 1 64.92
								 410.61 Z" class="st14"/>
				</g>
				<g id="shape1-81" v:mID="1" v:groupContext="groupContent">
					<path d="M64.92 596.23 L47.91 567.88 L47.91 579.22 A47.9054 84.2939 0 0 1 0 494.92 L0 528.93 A47.9054 84.2939
								 -180 0 0 47.91 613.24 L47.91 624.58 L64.92 596.23 Z" class="st15"/>
				</g>
			</g>
			<g id="group76-83" transform="translate(0.276471,0)" v:mID="76" v:groupContext="group">
				<v:userDefs>
					<v:ud v:nameU="ArcHeight" v:prompt="" v:val="VT0(0.88582677165354):24"/>
					<v:ud v:nameU="visVersion" v:prompt="" v:val="VT0(15):26"/>
					<v:ud v:nameU="ArcHeight" v:prompt="" v:val="VT0(2.341841784565):1"/>
				</v:userDefs>
				<title>Freccia curva a destra.76</title>
				<g id="shape77-84" v:mID="77" v:groupContext="shape">
					<title>Foglio.77</title>
					<v:userDefs>
						<v:ud v:nameU="BarWidth" v:prompt="" v:val="VT0(0.19685039370079):24"/>
						<v:ud v:nameU="ArrowTipY" v:prompt="" v:val="VT0(0.19685039370079):24"/>
						<v:ud v:nameU="ArcHeight" v:prompt="" v:val="VT0(0.88582677165354):24"/>
						<v:ud v:nameU="FillForegnd" v:prompt="" v:val="VT5(1)"/>
						<v:ud v:nameU="BarWidth" v:prompt="" v:val="VT0(0.47244085):1"/>
						<v:ud v:nameU="ArrowTipY" v:prompt="" v:val="VT0(0.393700795):1"/>
						<v:ud v:nameU="ArcHeight" v:prompt="" v:val="VT0(2.341841784565):1"/>
						<v:ud v:nameU="FillForegnd" v:prompt="" v:val="VT5(#fcebdd)"/>
					</v:userDefs>
					<path d="M64.92 410.61 L64.92 444.63 A64.9108 84.2939 -180 0 0 0 528.93 L0 494.92 A64.9108 84.2939 0 0 1 64.92
								 410.61 Z" class="st14"/>
				</g>
				<g id="shape76-86" v:mID="76" v:groupContext="groupContent">
					<path d="M64.92 596.23 L47.91 567.88 L47.91 579.22 A47.9054 84.2939 0 0 1 0 494.92 L0 528.93 A47.9054 84.2939
								 -180 0 0 47.91 613.24 L47.91 624.58 L64.92 596.23 Z" class="st15"/>
				</g>
			</g>
		</g>
		<g id="group88-88" transform="translate(284.792,-100.339)" v:mID="88" v:groupContext="group">
			<title>Foglio.88</title>
			<g id="group84-89" transform="translate(-4.39648E-14,-215.232)" v:mID="84" v:groupContext="group">
				<v:userDefs>
					<v:ud v:nameU="BarWidth" v:prompt="" v:val="VT0(0.19685039370079):24"/>
					<v:ud v:nameU="ArrowTipY" v:prompt="" v:val="VT0(0.19685039370079):24"/>
					<v:ud v:nameU="ArcHeight" v:prompt="" v:val="VT0(0.88582677165354):24"/>
					<v:ud v:nameU="visVersion" v:prompt="" v:val="VT0(15):26"/>
					<v:ud v:nameU="BarWidth" v:prompt="" v:val="VT0(0.4672194):1"/>
					<v:ud v:nameU="ArrowTipY" v:prompt="" v:val="VT0(0.379448335):1"/>
					<v:ud v:nameU="ArcHeight" v:prompt="" v:val="VT0(2.3764572676755):1"/>
				</v:userDefs>
				<title>Freccia curva a sinistra</title>
				<g id="shape85-90" v:mID="85" v:groupContext="shape">
					<title>Foglio.85</title>
					<v:userDefs>
						<v:ud v:nameU="ArcHeight" v:prompt="" v:val="VT0(0.88582677165354):24"/>
						<v:ud v:nameU="BarWidth" v:prompt="" v:val="VT0(0.19685039370079):24"/>
						<v:ud v:nameU="ArrowBackX" v:prompt="" v:val="VT0(0.19685039370079):24"/>
						<v:ud v:nameU="ArrowTipY" v:prompt="" v:val="VT0(0.19685039370079):24"/>
						<v:ud v:nameU="FillForegnd" v:prompt="" v:val="VT5(1)"/>
						<v:ud v:nameU="ArcHeight" v:prompt="" v:val="VT0(2.3764572676755):1"/>
						<v:ud v:nameU="BarWidth" v:prompt="" v:val="VT0(0.4672194):1"/>
						<v:ud v:nameU="ArrowBackX" v:prompt="" v:val="VT0(0.27559056):1"/>
						<v:ud v:nameU="ArrowTipY" v:prompt="" v:val="VT0(0.379448335):1"/>
						<v:ud v:nameU="FillForegnd" v:prompt="" v:val="VT5(#ebf1df)"/>
					</v:userDefs>
					<path d="M0 597.26 L19.84 569.94 L19.84 580.44 A45.3476 85.5398 -180 0 0 65.2 494.88 L65.2 528.52 A45.3476 85.5398
								 0 0 1 19.84 614.08 L19.84 624.58 L0 597.26 Z" class="st16"/>
				</g>
				<g id="shape84-92" v:mID="84" v:groupContext="groupContent">
					<path d="M0 409.33 L0 442.97 A65.1872 85.5398 0 0 1 65.2 528.52 L65.2 494.88 A65.1872 85.5398 -180 0 0 -0 409.33
								 Z" class="st17"/>
				</g>
			</g>
			<g id="group86-94" transform="translate(0.453733,0)" v:mID="86" v:groupContext="group">
				<v:userDefs>
					<v:ud v:nameU="BarWidth" v:prompt="" v:val="VT0(0.19685039370079):24"/>
					<v:ud v:nameU="ArrowTipY" v:prompt="" v:val="VT0(0.19685039370079):24"/>
					<v:ud v:nameU="ArcHeight" v:prompt="" v:val="VT0(0.88582677165354):24"/>
					<v:ud v:nameU="visVersion" v:prompt="" v:val="VT0(15):26"/>
					<v:ud v:nameU="BarWidth" v:prompt="" v:val="VT0(0.4672194):1"/>
					<v:ud v:nameU="ArrowTipY" v:prompt="" v:val="VT0(0.379448335):1"/>
					<v:ud v:nameU="ArcHeight" v:prompt="" v:val="VT0(2.3764572676755):1"/>
				</v:userDefs>
				<title>Freccia curva a sinistra.86</title>
				<g id="shape87-95" v:mID="87" v:groupContext="shape">
					<title>Foglio.87</title>
					<v:userDefs>
						<v:ud v:nameU="ArcHeight" v:prompt="" v:val="VT0(0.88582677165354):24"/>
						<v:ud v:nameU="BarWidth" v:prompt="" v:val="VT0(0.19685039370079):24"/>
						<v:ud v:nameU="ArrowBackX" v:prompt="" v:val="VT0(0.19685039370079):24"/>
						<v:ud v:nameU="ArrowTipY" v:prompt="" v:val="VT0(0.19685039370079):24"/>
						<v:ud v:nameU="FillForegnd" v:prompt="" v:val="VT5(1)"/>
						<v:ud v:nameU="ArcHeight" v:prompt="" v:val="VT0(2.3764572676755):1"/>
						<v:ud v:nameU="BarWidth" v:prompt="" v:val="VT0(0.4672194):1"/>
						<v:ud v:nameU="ArrowBackX" v:prompt="" v:val="VT0(0.27559056):1"/>
						<v:ud v:nameU="ArrowTipY" v:prompt="" v:val="VT0(0.379448335):1"/>
						<v:ud v:nameU="FillForegnd" v:prompt="" v:val="VT5(#ebf1df)"/>
					</v:userDefs>
					<path d="M0 597.26 L19.84 569.94 L19.84 580.44 A45.3476 85.5398 -180 0 0 65.2 494.88 L65.2 528.52 A45.3476 85.5398
								 0 0 1 19.84 614.08 L19.84 624.58 L0 597.26 Z" class="st16"/>
				</g>
				<g id="shape86-97" v:mID="86" v:groupContext="groupContent">
					<path d="M0 409.33 L0 442.97 A65.1872 85.5398 0 0 1 65.2 528.52 L65.2 494.88 A65.1872 85.5398 -180 0 0 -0 409.33
								 Z" class="st17"/>
				</g>
			</g>
		</g>
		<g id="group98-99" transform="translate(366.198,-106.915)" v:mID="98" v:groupContext="group">
			<title>Foglio.98</title>
			<g id="group94-100" transform="translate(35.4331,820.025) rotate(180)" v:mID="94" v:groupContext="group">
				<title>Foglio.94</title>
				<g id="shape95-101" v:mID="95" v:groupContext="shape" transform="translate(4.39648E-14,-66.2944)">
					<title>Rettangolo</title>
					<v:userDefs>
						<v:ud v:nameU="visVersion" v:val="VT0(15):26"/>
					</v:userDefs>
					<rect x="0" y="261.742" width="35.4331" height="362.835" class="st18"/>
				</g>
				<g id="shape96-103" v:mID="96" v:groupContext="shape" transform="translate(35.4331,1182.31) rotate(180)">
					<title>Triangolo</title>
					<v:userDefs>
						<v:ud v:nameU="visVersion" v:val="VT0(15):26"/>
					</v:userDefs>
					<path d="M35.43 624.58 L17.72 557.73 L0 624.58 L35.43 624.58 Z" class="st18"/>
				</g>
			</g>
			<g id="shape97-105" v:mID="97" v:groupContext="shape" transform="translate(-596.861,529.952) rotate(-90)">
				<title>Foglio.97</title>
				<desc>Trust Chain</desc>
				<v:textBlock v:margins="rect(4,4,4,4)" v:tabSpace="42.5197"/>
				<v:textRect cx="115.953" cy="614.577" width="231.91" height="20"/>
				<rect x="0" y="604.577" width="231.906" height="20" class="st2"/>
				<text x="47.12" y="623.58" class="st19" v:langID="1040"><v:paragraph v:horizAlign="1"/><v:tabList/>Trust Chain</text>			</g>
		</g>
		<g id="group99-108" transform="translate(18.12,-100.773)" v:mID="99" v:groupContext="group">
			<title>Foglio.99</title>
			<g id="group92-109" v:mID="92" v:groupContext="group">
				<title>Foglio.92</title>
				<g id="shape90-110" v:mID="90" v:groupContext="shape" transform="translate(4.39648E-14,-66.2944)">
					<title>Rettangolo</title>
					<v:userDefs>
						<v:ud v:nameU="visVersion" v:val="VT0(15):26"/>
					</v:userDefs>
					<rect x="0" y="261.742" width="35.4331" height="362.835" class="st20"/>
				</g>
				<g id="shape91-112" v:mID="91" v:groupContext="shape" transform="translate(35.4331,1182.31) rotate(180)">
					<title>Triangolo</title>
					<v:userDefs>
						<v:ud v:nameU="visVersion" v:val="VT0(15):26"/>
					</v:userDefs>
					<path d="M35.43 624.58 L17.72 557.73 L0 624.58 L35.43 624.58 Z" class="st20"/>
				</g>
			</g>
			<g id="shape93-114" v:mID="93" v:groupContext="shape" transform="translate(-596.647,517.686) rotate(-90)">
				<title>Foglio.93</title>
				<desc>Onboarding Chain</desc>
				<v:textBlock v:margins="rect(4,4,4,4)" v:tabSpace="42.5197"/>
				<v:textRect cx="115.953" cy="614.577" width="231.91" height="20"/>
				<rect x="0" y="604.577" width="231.906" height="20" class="st2"/>
				<text x="5.77" y="623.58" class="st19" v:langID="1040"><v:paragraph v:horizAlign="1"/><v:tabList/>Onboarding Chain</text>			</g>
		</g>
		<g id="group100-117" transform="translate(159.838,-122.974)" v:mID="100" v:groupContext="group">
			<title>Foglio.100</title>
			<g id="group41-118" transform="translate(-6.39488E-14,-7.97244)" v:mID="41" v:groupContext="group">
				<title>Foglio.41</title>
				<g id="group42-119" v:mID="42" v:groupContext="group">
					<title>Foglio.42</title>
					<g id="shape43-120" v:mID="43" v:groupContext="shape">
						<title>Foglio.43</title>
						<path d="M25.67 613.9 C24.05 614 21.91 615.63 19.85 616.56 C17.32 617.71 13.39 616.79 13.39 616.79 C13.99
									 616.5 16.46 615.92 16.96 615.7 C19.6 614.54 19.37 612.11 18.12 612.13 C16.45 612.16 15.48 612.57
									 12.16 613.02 C9.65 613.36 6.68 613.24 5.25 613.78 C3.24 614.55 0 619.72 0 619.72 L5.01 624.58
									 C5.01 624.58 8.11 621.52 9.62 621.52 C13.06 621.52 13.2 621.48 16.4 621.3 C17.75 621.23 18.04
									 621.17 18.81 620.91 C22.95 619.51 27.4 615.79 27.48 615.34 C27.67 614.3 26.53 613.85 25.67 613.9
									 Z" class="st10"/>
					</g>
					<g id="shape44-122" v:mID="44" v:groupContext="shape" transform="translate(18.3633,-17.4062)">
						<title>Foglio.44</title>
						<path d="M0.39 623.8 C0.48 623.81 0.57 623.78 0.62 623.7 C1.77 621.85 3.51 619.6 5.77 618.08 C3.66 620.11
									 2.17 622.24 1.26 624.25 C1.24 624.31 1.24 624.38 1.27 624.44 C1.3 624.5 1.36 624.54 1.43 624.55
									 C1.57 624.57 1.73 624.58 1.88 624.58 C3.33 624.58 4.77 623.69 5.73 622.95 C6.82 622.11 7.86
									 620.99 8.53 619.97 C9.52 618.43 10.15 616.53 10.28 614.63 C10.28 614.57 10.26 614.51 10.22 614.46
									 C10.18 614.42 10.12 614.4 10.06 614.4 C8.61 614.5 5.03 614.97 2.94 617.06 C2.87 617.12 2.1 617.83
									 1.38 618.97 C0.4 620.52 0 622.13 0.23 623.62 C0.24 623.71 0.31 623.78 0.39 623.8 Z"
								class="st10"/>
					</g>
					<g id="shape45-124" v:mID="45" v:groupContext="shape" transform="translate(8.68958,-14.4154)">
						<title>Foglio.45</title>
						<path d="M4.34 623.03 C5.25 623.74 6.63 624.58 8.01 624.58 C8.16 624.58 8.3 624.57 8.44 624.55 C8.5 624.54
									 8.56 624.5 8.59 624.45 C8.62 624.39 8.62 624.33 8.6 624.27 C7.74 622.35 6.31 620.32 4.3 618.38
									 C6.46 619.84 8.12 621.98 9.21 623.74 C9.26 623.81 9.34 623.85 9.42 623.83 C9.51 623.82 9.57
									 623.75 9.58 623.67 C9.8 622.25 9.42 620.71 8.49 619.23 C7.8 618.15 7.07 617.47 7 617.41 C5 615.42
									 1.59 614.98 0.22 614.88 C0.16 614.88 0.1 614.9 0.06 614.94 C0.02 614.98 0 615.04 0 615.09 C0.13
									 616.91 0.73 618.72 1.67 620.18 C2.31 621.16 3.31 622.23 4.34 623.03 Z" class="st10"/>
					</g>
					<g id="shape46-126" v:mID="46" v:groupContext="shape" transform="translate(12.107,-21.822)">
						<title>Foglio.46</title>
						<path d="M2.89 623.55 C3.5 624.02 4.41 624.58 5.33 624.58 C5.43 624.58 5.53 624.57 5.62 624.56 C5.66 624.55
									 5.7 624.53 5.72 624.49 C5.74 624.45 5.74 624.41 5.73 624.37 C5.15 623.09 4.21 621.74 2.86 620.45
									 C4.3 621.42 5.41 622.84 6.14 624.02 C6.17 624.07 6.22 624.09 6.28 624.08 C6.33 624.07 6.37 624.03
									 6.38 623.97 C6.53 623.02 6.28 622 5.65 621.01 C5.2 620.3 4.71 619.85 4.66 619.8 C3.33 618.48
									 1.06 618.18 0.15 618.12 C0.11 618.12 0.07 618.13 0.04 618.16 C0.01 618.18 0 618.22 0 618.26
									 C0.09 619.47 0.48 620.67 1.12 621.65 C1.54 622.3 2.2 623.01 2.89 623.55 Z" class="st10"/>
					</g>
				</g>
			</g>
			<g id="shape71-128" v:mID="71" v:groupContext="shape" transform="translate(38.0906,0)">
				<title>Foglio.71</title>
				<desc>Relying Party</desc>
				<v:textBlock v:margins="rect(4,4,4,4)" v:tabSpace="42.5197"/>
				<v:textRect cx="76.8898" cy="603.317" width="153.78" height="42.5197"/>
				<rect x="0" y="582.057" width="153.78" height="42.5197" class="st2"/>
				<text x="4" y="606.92" class="st5" v:langID="1040"><v:paragraph/><v:tabList/>Relying Party</text>			</g>
		</g>
	</g>
</svg>
