<?xml version="1.0" encoding="UTF-8" standalone="no"?>
<!DOCTYPE svg PUBLIC "-//W3C//DTD SVG 1.1//EN" "http://www.w3.org/Graphics/SVG/1.1/DTD/svg11.dtd">
<!-- Generato da Microsoft Visio, esportazione SVG flusso.svg flow -->
<svg xmlns="http://www.w3.org/2000/svg" xmlns:xlink="http://www.w3.org/1999/xlink" xmlns:ev="http://www.w3.org/2001/xml-events"
		width="7.60227in" height="6.74349in" viewBox="0 0 547.363 485.531" xml:space="preserve" color-interpolation-filters="sRGB"
		class="st25">
	<style type="text/css">
	<![CDATA[
		.st1 {fill:#fff2cc;stroke:#000000;stroke-linecap:round;stroke-linejoin:round;stroke-width:0.24}
		.st2 {fill:#fff2cc;stroke:#000000;stroke-linecap:round;stroke-linejoin:round;stroke-width:0.24;visibility:hidden}
		.st3 {fill:#ffffff;stroke:#000000;stroke-linecap:round;stroke-linejoin:round;stroke-width:0.72;visibility:hidden}
		.st4 {fill:#000000;fill-opacity:1;stroke:#000000;stroke-opacity:1;stroke-width:0.35714285714286}
		.st5 {fill:#000000;stroke:#cccccc;stroke-linecap:round;stroke-linejoin:round;stroke-width:0.72;visibility:hidden}
		.st6 {fill:#0033cc;stroke:#0070c0;stroke-linecap:round;stroke-linejoin:round;stroke-width:0.24}
		.st7 {fill:#92d050;stroke:#000000;stroke-linecap:round;stroke-linejoin:round;stroke-width:0.24}
		.st8 {fill:#92d050;stroke:#000000;stroke-linecap:round;stroke-linejoin:round;stroke-width:0.5;visibility:hidden}
		.st9 {fill:#000000;font-family:Calibri;font-size:0.833336em;font-weight:bold}
		.st10 {fill:#ffc000;stroke:#000000;stroke-linecap:round;stroke-linejoin:round;stroke-width:0.24}
		.st11 {fill:#ffc000;stroke:#000000;stroke-linecap:round;stroke-linejoin:round;stroke-width:0.24;visibility:hidden}
		.st12 {fill:#ff7c80;stroke:#000000;stroke-linecap:round;stroke-linejoin:round;stroke-width:0.24}
		.st13 {fill:#ff7c80;stroke:#000000;stroke-linecap:round;stroke-linejoin:round;stroke-width:0.24;visibility:hidden}
		.st14 {font-size:1em}
		.st15 {fill:#99ccff;stroke:#000000;stroke-linecap:round;stroke-linejoin:round;stroke-width:0.24}
		.st16 {fill:#99ccff;stroke:#000000;stroke-linecap:round;stroke-linejoin:round;stroke-width:0.24;visibility:hidden}
		.st17 {fill:#0033cc;stroke:#000000;stroke-linecap:round;stroke-linejoin:round;stroke-width:0.24}
		.st18 {fill:#ffffff;font-family:Calibri;font-size:0.833336em;font-weight:bold}
		.st19 {marker-end:url(#mrkr4-334);stroke:#0033cc;stroke-linecap:round;stroke-linejoin:round;stroke-width:0.72}
		.st20 {fill:#0033cc;fill-opacity:1;stroke:#0033cc;stroke-opacity:1;stroke-width:0.28571428571429}
		.st21 {fill:#ffffff;stroke:none;stroke-linecap:butt;stroke-width:7.2}
		.st22 {fill:#000000;font-family:Calibri;font-size:0.666664em}
		.st23 {marker-end:url(#mrkr4-371);stroke:#0033cc;stroke-dasharray:0,3;stroke-linecap:round;stroke-linejoin:round;stroke-width:1}
		.st24 {fill:#0033cc;fill-opacity:1;stroke:#0033cc;stroke-opacity:1;stroke-width:0.35714285714286}
		.st25 {fill:none;fill-rule:evenodd;font-size:12px;overflow:visible;stroke-linecap:square;stroke-miterlimit:3}
	]]>
	</style>

	<defs id="Markers">
		<g id="lend1">
			<path d="M 1 -1 L 0 0 L 1 1 " style="stroke-linecap:round;stroke-linejoin:round;fill:none"/>
		</g>
		<marker id="mrkr1-24" class="st4" orient="auto" markerUnits="strokeWidth" overflow="visible">
			<use xlink:href="#lend1" transform="scale(-2.8,-2.8) "/>
		</marker>
		<g id="lend4">
			<path d="M 2 1 L 0 0 L 2 -1 L 2 1 " style="stroke:none"/>
		</g>
		<marker id="mrkr4-334" class="st20" refX="-7" orient="auto" markerUnits="strokeWidth" overflow="visible">
			<use xlink:href="#lend4" transform="scale(-3.5,-3.5) "/>
		</marker>
		<marker id="mrkr4-371" class="st24" refX="-5.6" orient="auto" markerUnits="strokeWidth" overflow="visible">
			<use xlink:href="#lend4" transform="scale(-2.8,-2.8) "/>
		</marker>
	</defs>
	<g>
		<title>flow</title>
		<g id="group363-1" transform="translate(245.779,-18.12)">
			<title>Attività.363</title>
			<g id="shape364-2">
				<title>Foglio.364</title>
				<rect x="0" y="36.24" width="283.465" height="449.291" rx="5.66929" ry="5.66929" class="st1"/>
			</g>
			<g id="group365-4">
				<title>Foglio.365</title>
				<g id="shape366-5">
					<title>Foglio.366</title>
					<rect x="0" y="36.24" width="283.465" height="449.291" rx="2.12598" ry="2.12598" class="st2"/>
				</g>
				<g id="shape367-7" transform="translate(1.8,-1.8)">
					<title>Foglio.367</title>
					<rect x="0" y="39.84" width="279.865" height="445.691" rx="2.12598" ry="2.12598" class="st2"/>
				</g>
			</g>
			<g id="shape368-9" transform="translate(142.543,-2.12598)">
				<title>Foglio.368</title>
			</g>
			<g id="group369-11" transform="translate(142.903,-2.83465)">
				<title>Foglio.369</title>
				<g id="shape370-12">
					<title>Foglio.370</title>
					<rect x="0" y="474.193" width="11.3386" height="11.3386" class="st3"/>
				</g>
				<g id="shape371-14" transform="translate(2.83465,-2.83465)">
					<title>Foglio.371</title>
				</g>
			</g>
			<g id="shape372-16" transform="translate(142.903,-3.68504)">
				<title>Foglio.372</title>
			</g>
			<g id="shape373-18" transform="translate(144.017,-3.68504)">
				<title>Foglio.373</title>
			</g>
			<g id="group374-20" transform="translate(142.543,-2.83465)">
				<title>Foglio.374</title>
				<g id="shape375-21" transform="translate(9.4603,960.725) rotate(179.753)">
					<title>Foglio.375</title>
				</g>
			</g>
			<g id="shape376-25" transform="translate(3.50394,-435.787)">
				<title>Foglio.376</title>
			</g>
			<g id="shape377-27" transform="translate(3.00394,-435.287)">
				<title>Foglio.377</title>
			</g>
			<g id="group378-29" transform="translate(2.50394,-436.787)">
				<title>Foglio.378</title>
				<g id="shape379-30">
					<title>Foglio.379</title>
					<rect x="0" y="477.531" width="12" height="8" class="st5"/>
				</g>
				<g id="shape380-32" transform="translate(-1.9984E-15,-4.20339)">
					<title>Foglio.380</title>
				</g>
			</g>
			<g id="shape381-34" transform="translate(2.50394,-436.787)">
				<title>Foglio.381</title>
			</g>
			<g id="shape382-36" transform="translate(3.50394,-435.787)">
				<title>Foglio.382</title>
			</g>
			<g id="shape383-38" transform="translate(3.00394,-436.787)">
				<title>Foglio.383</title>
			</g>
			<g id="shape384-40" transform="translate(3.00394,-436.787)">
				<title>Foglio.384</title>
			</g>
			<g id="shape385-42" transform="translate(-332.5,481.223) rotate(-90)">
				<title>Foglio.385</title>
			</g>
		</g>
		<g id="shape174-44" transform="translate(176.816,-42.2145)">
			<title>Rettangolo</title>
			<rect x="0" y="151.043" width="2.8189" height="334.488" class="st6"/>
		</g>
		<g id="shape175-46" transform="translate(52.5688,-42.2145)">
			<title>Rettangolo.175</title>
			<rect x="0" y="151.043" width="2.8189" height="334.488" class="st6"/>
		</g>
		<g id="shape176-48" transform="translate(301.062,-42.2145)">
			<title>Rettangolo.176</title>
			<rect x="0" y="151.043" width="2.8189" height="334.488" class="st6"/>
		</g>
		<g id="shape177-50" transform="translate(386.527,-42.2145)">
			<title>Rettangolo.177</title>
			<rect x="0" y="151.043" width="2.8189" height="334.488" class="st6"/>
		</g>
		<g id="shape178-52" transform="translate(471.991,-42.2145)">
			<title>Rettangolo.178</title>
			<rect x="0" y="151.043" width="2.8189" height="334.488" class="st6"/>
		</g>
		<g id="group1-54" transform="translate(18.12,-377.123)">
			<title>Attività</title>
			<desc>Relying Party</desc>
			<g id="shape2-55">
				<title>Foglio.2</title>
				<rect x="0" y="452.355" width="71.7165" height="33.1759" rx="5.66929" ry="5.66929" class="st7"/>
			</g>
			<g id="group3-57">
				<title>Foglio.3</title>
				<g id="shape4-58">
					<title>Foglio.4</title>
					<rect x="0" y="452.355" width="71.7165" height="33.1759" rx="2.12598" ry="2.12598" class="st8"/>
				</g>
				<g id="shape5-60" transform="translate(1.8,-1.8)">
					<title>Foglio.5</title>
					<rect x="0" y="455.955" width="68.1165" height="29.5759" rx="2.12598" ry="2.12598" class="st8"/>
				</g>
			</g>
			<g id="shape6-62" transform="translate(36.669,-2.12598)">
				<title>Foglio.6</title>
			</g>
			<g id="group7-64" transform="translate(37.029,-2.83465)">
				<title>Foglio.7</title>
				<g id="shape8-65">
					<title>Foglio.8</title>
					<rect x="0" y="474.193" width="11.3386" height="11.3386" class="st3"/>
				</g>
				<g id="shape9-67" transform="translate(2.83465,-2.83465)">
					<title>Foglio.9</title>
				</g>
			</g>
			<g id="shape10-69" transform="translate(37.029,-3.68504)">
				<title>Foglio.10</title>
			</g>
			<g id="shape11-71" transform="translate(38.143,-3.68504)">
				<title>Foglio.11</title>
			</g>
			<g id="group12-73" transform="translate(36.669,-2.83465)">
				<title>Foglio.12</title>
				<g id="shape13-74" transform="translate(9.4603,960.725) rotate(179.753)">
					<title>Foglio.13</title>
				</g>
			</g>
			<g id="shape14-77" transform="translate(3.50394,-19.6719)">
				<title>Foglio.14</title>
			</g>
			<g id="shape15-79" transform="translate(3.00394,-19.1719)">
				<title>Foglio.15</title>
			</g>
			<g id="group16-81" transform="translate(2.50394,-20.6719)">
				<title>Foglio.16</title>
				<g id="shape17-82">
					<title>Foglio.17</title>
					<rect x="0" y="477.531" width="12" height="8" class="st5"/>
				</g>
				<g id="shape18-84" transform="translate(-1.9984E-15,-4.20339)">
					<title>Foglio.18</title>
				</g>
			</g>
			<g id="shape19-86" transform="translate(2.50394,-20.6719)">
				<title>Foglio.19</title>
			</g>
			<g id="shape20-88" transform="translate(3.50394,-19.6719)">
				<title>Foglio.20</title>
			</g>
			<g id="shape21-90" transform="translate(3.00394,-20.6719)">
				<title>Foglio.21</title>
			</g>
			<g id="shape22-92" transform="translate(3.00394,-20.6719)">
				<title>Foglio.22</title>
			</g>
			<g id="shape23-94" transform="translate(-438.374,481.223) rotate(-90)">
				<title>Foglio.23</title>
			</g>
			<g id="shape1-96">
				<text x="8.51" y="471.94" class="st9">Relying Party</text>			</g>
		</g>
		<g id="group24-98" transform="translate(142.367,-377.123)">
			<title>Attività.24</title>
			<desc>User</desc>
			<g id="shape25-99">
				<title>Foglio.25</title>
				<rect x="0" y="452.355" width="71.7165" height="33.1759" rx="5.66929" ry="5.66929" class="st10"/>
			</g>
			<g id="group26-101">
				<title>Foglio.26</title>
				<g id="shape27-102">
					<title>Foglio.27</title>
					<rect x="0" y="452.355" width="71.7165" height="33.1759" rx="2.12598" ry="2.12598" class="st11"/>
				</g>
				<g id="shape28-104" transform="translate(1.8,-1.8)">
					<title>Foglio.28</title>
					<rect x="0" y="455.955" width="68.1165" height="29.5759" rx="2.12598" ry="2.12598" class="st11"/>
				</g>
			</g>
			<g id="shape29-106" transform="translate(36.669,-2.12598)">
				<title>Foglio.29</title>
			</g>
			<g id="group30-108" transform="translate(37.029,-2.83465)">
				<title>Foglio.30</title>
				<g id="shape31-109">
					<title>Foglio.31</title>
					<rect x="0" y="474.193" width="11.3386" height="11.3386" class="st3"/>
				</g>
				<g id="shape32-111" transform="translate(2.83465,-2.83465)">
					<title>Foglio.32</title>
				</g>
			</g>
			<g id="shape33-113" transform="translate(37.029,-3.68504)">
				<title>Foglio.33</title>
			</g>
			<g id="shape34-115" transform="translate(38.143,-3.68504)">
				<title>Foglio.34</title>
			</g>
			<g id="group35-117" transform="translate(36.669,-2.83465)">
				<title>Foglio.35</title>
				<g id="shape36-118" transform="translate(9.4603,960.725) rotate(179.753)">
					<title>Foglio.36</title>
				</g>
			</g>
			<g id="shape37-121" transform="translate(3.50394,-19.6719)">
				<title>Foglio.37</title>
			</g>
			<g id="shape38-123" transform="translate(3.00394,-19.1719)">
				<title>Foglio.38</title>
			</g>
			<g id="group39-125" transform="translate(2.50394,-20.6719)">
				<title>Foglio.39</title>
				<g id="shape40-126">
					<title>Foglio.40</title>
					<rect x="0" y="477.531" width="12" height="8" class="st5"/>
				</g>
				<g id="shape41-128" transform="translate(-1.9984E-15,-4.20339)">
					<title>Foglio.41</title>
				</g>
			</g>
			<g id="shape42-130" transform="translate(2.50394,-20.6719)">
				<title>Foglio.42</title>
			</g>
			<g id="shape43-132" transform="translate(3.50394,-19.6719)">
				<title>Foglio.43</title>
			</g>
			<g id="shape44-134" transform="translate(3.00394,-20.6719)">
				<title>Foglio.44</title>
			</g>
			<g id="shape45-136" transform="translate(3.00394,-20.6719)">
				<title>Foglio.45</title>
			</g>
			<g id="shape46-138" transform="translate(-438.374,481.223) rotate(-90)">
				<title>Foglio.46</title>
			</g>
			<g id="shape24-140">
				<text x="26.31" y="471.94" class="st9">User</text>			</g>
		</g>
		<g id="group47-142" transform="translate(266.613,-377.123)">
			<title>Attività.47</title>
			<desc>Authorization Server</desc>
			<g id="shape48-143">
				<title>Foglio.48</title>
				<rect x="0" y="452.355" width="71.7165" height="33.1759" rx="5.66929" ry="5.66929" class="st12"/>
			</g>
			<g id="group49-145">
				<title>Foglio.49</title>
				<g id="shape50-146">
					<title>Foglio.50</title>
					<rect x="0" y="452.355" width="71.7165" height="33.1759" rx="2.12598" ry="2.12598" class="st13"/>
				</g>
				<g id="shape51-148" transform="translate(1.8,-1.8)">
					<title>Foglio.51</title>
					<rect x="0" y="455.955" width="68.1165" height="29.5759" rx="2.12598" ry="2.12598" class="st13"/>
				</g>
			</g>
			<g id="shape52-150" transform="translate(36.669,-2.12598)">
				<title>Foglio.52</title>
			</g>
			<g id="group53-152" transform="translate(37.029,-2.83465)">
				<title>Foglio.53</title>
				<g id="shape54-153">
					<title>Foglio.54</title>
					<rect x="0" y="474.193" width="11.3386" height="11.3386" class="st3"/>
				</g>
				<g id="shape55-155" transform="translate(2.83465,-2.83465)">
					<title>Foglio.55</title>
				</g>
			</g>
			<g id="shape56-157" transform="translate(37.029,-3.68504)">
				<title>Foglio.56</title>
			</g>
			<g id="shape57-159" transform="translate(38.143,-3.68504)">
				<title>Foglio.57</title>
			</g>
			<g id="group58-161" transform="translate(36.669,-2.83465)">
				<title>Foglio.58</title>
				<g id="shape59-162" transform="translate(9.4603,960.725) rotate(179.753)">
					<title>Foglio.59</title>
				</g>
			</g>
			<g id="shape60-165" transform="translate(3.50394,-19.6719)">
				<title>Foglio.60</title>
			</g>
			<g id="shape61-167" transform="translate(3.00394,-19.1719)">
				<title>Foglio.61</title>
			</g>
			<g id="group62-169" transform="translate(2.50394,-20.6719)">
				<title>Foglio.62</title>
				<g id="shape63-170">
					<title>Foglio.63</title>
					<rect x="0" y="477.531" width="12" height="8" class="st5"/>
				</g>
				<g id="shape64-172" transform="translate(-1.9984E-15,-4.20339)">
					<title>Foglio.64</title>
				</g>
			</g>
			<g id="shape65-174" transform="translate(2.50394,-20.6719)">
				<title>Foglio.65</title>
			</g>
			<g id="shape66-176" transform="translate(3.50394,-19.6719)">
				<title>Foglio.66</title>
			</g>
			<g id="shape67-178" transform="translate(3.00394,-20.6719)">
				<title>Foglio.67</title>
			</g>
			<g id="shape68-180" transform="translate(3.00394,-20.6719)">
				<title>Foglio.68</title>
			</g>
			<g id="shape69-182" transform="translate(-438.374,481.223) rotate(-90)">
				<title>Foglio.69</title>
			</g>
			<g id="shape47-184">
				<text x="7.25" y="465.94" class="st9">Authorization <tspan x="22.54" dy="1.2em" class="st14">Server</tspan></text>			</g>
		</g>
		<g id="group70-187" transform="translate(352.078,-377.123)">
			<title>Attività.70</title>
			<desc>Token Endpoint</desc>
			<g id="shape71-188">
				<title>Foglio.71</title>
				<rect x="0" y="452.355" width="71.7165" height="33.1759" rx="5.66929" ry="5.66929" class="st12"/>
			</g>
			<g id="group72-190">
				<title>Foglio.72</title>
				<g id="shape73-191">
					<title>Foglio.73</title>
					<rect x="0" y="452.355" width="71.7165" height="33.1759" rx="2.12598" ry="2.12598" class="st13"/>
				</g>
				<g id="shape74-193" transform="translate(1.8,-1.8)">
					<title>Foglio.74</title>
					<rect x="0" y="455.955" width="68.1165" height="29.5759" rx="2.12598" ry="2.12598" class="st13"/>
				</g>
			</g>
			<g id="shape75-195" transform="translate(36.669,-2.12598)">
				<title>Foglio.75</title>
			</g>
			<g id="group76-197" transform="translate(37.029,-2.83465)">
				<title>Foglio.76</title>
				<g id="shape77-198">
					<title>Foglio.77</title>
					<rect x="0" y="474.193" width="11.3386" height="11.3386" class="st3"/>
				</g>
				<g id="shape78-200" transform="translate(2.83465,-2.83465)">
					<title>Foglio.78</title>
				</g>
			</g>
			<g id="shape79-202" transform="translate(37.029,-3.68504)">
				<title>Foglio.79</title>
			</g>
			<g id="shape80-204" transform="translate(38.143,-3.68504)">
				<title>Foglio.80</title>
			</g>
			<g id="group81-206" transform="translate(36.669,-2.83465)">
				<title>Foglio.81</title>
				<g id="shape82-207" transform="translate(9.4603,960.725) rotate(179.753)">
					<title>Foglio.82</title>
				</g>
			</g>
			<g id="shape83-210" transform="translate(3.50394,-19.6719)">
				<title>Foglio.83</title>
			</g>
			<g id="shape84-212" transform="translate(3.00394,-19.1719)">
				<title>Foglio.84</title>
			</g>
			<g id="group85-214" transform="translate(2.50394,-20.6719)">
				<title>Foglio.85</title>
				<g id="shape86-215">
					<title>Foglio.86</title>
					<rect x="0" y="477.531" width="12" height="8" class="st5"/>
				</g>
				<g id="shape87-217" transform="translate(-1.9984E-15,-4.20339)">
					<title>Foglio.87</title>
				</g>
			</g>
			<g id="shape88-219" transform="translate(2.50394,-20.6719)">
				<title>Foglio.88</title>
			</g>
			<g id="shape89-221" transform="translate(3.50394,-19.6719)">
				<title>Foglio.89</title>
			</g>
			<g id="shape90-223" transform="translate(3.00394,-20.6719)">
				<title>Foglio.90</title>
			</g>
			<g id="shape91-225" transform="translate(3.00394,-20.6719)">
				<title>Foglio.91</title>
			</g>
			<g id="shape92-227" transform="translate(-438.374,481.223) rotate(-90)">
				<title>Foglio.92</title>
			</g>
			<g id="shape70-229">
				<text x="23.09" y="465.94" class="st9">Token <tspan x="17.04" dy="1.2em" class="st14">Endpoint</tspan></text>			</g>
		</g>
		<g id="group93-232" transform="translate(437.543,-377.123)">
			<title>Attività.93</title>
			<desc>UserInfo Endpoint</desc>
			<g id="shape94-233">
				<title>Foglio.94</title>
				<rect x="0" y="452.355" width="71.7165" height="33.1759" rx="5.66929" ry="5.66929" class="st12"/>
			</g>
			<g id="group95-235">
				<title>Foglio.95</title>
				<g id="shape96-236">
					<title>Foglio.96</title>
					<rect x="0" y="452.355" width="71.7165" height="33.1759" rx="2.12598" ry="2.12598" class="st13"/>
				</g>
				<g id="shape97-238" transform="translate(1.8,-1.8)">
					<title>Foglio.97</title>
					<rect x="0" y="455.955" width="68.1165" height="29.5759" rx="2.12598" ry="2.12598" class="st13"/>
				</g>
			</g>
			<g id="shape98-240" transform="translate(36.669,-2.12598)">
				<title>Foglio.98</title>
			</g>
			<g id="group99-242" transform="translate(37.029,-2.83465)">
				<title>Foglio.99</title>
				<g id="shape100-243">
					<title>Foglio.100</title>
					<rect x="0" y="474.193" width="11.3386" height="11.3386" class="st3"/>
				</g>
				<g id="shape101-245" transform="translate(2.83465,-2.83465)">
					<title>Foglio.101</title>
				</g>
			</g>
			<g id="shape102-247" transform="translate(37.029,-3.68504)">
				<title>Foglio.102</title>
			</g>
			<g id="shape103-249" transform="translate(38.143,-3.68504)">
				<title>Foglio.103</title>
			</g>
			<g id="group104-251" transform="translate(36.669,-2.83465)">
				<title>Foglio.104</title>
				<g id="shape105-252" transform="translate(9.4603,960.725) rotate(179.753)">
					<title>Foglio.105</title>
				</g>
			</g>
			<g id="shape106-255" transform="translate(3.50394,-19.6719)">
				<title>Foglio.106</title>
			</g>
			<g id="shape107-257" transform="translate(3.00394,-19.1719)">
				<title>Foglio.107</title>
			</g>
			<g id="group108-259" transform="translate(2.50394,-20.6719)">
				<title>Foglio.108</title>
				<g id="shape109-260">
					<title>Foglio.109</title>
					<rect x="0" y="477.531" width="12" height="8" class="st5"/>
				</g>
				<g id="shape110-262" transform="translate(-1.9984E-15,-4.20339)">
					<title>Foglio.110</title>
				</g>
			</g>
			<g id="shape111-264" transform="translate(2.50394,-20.6719)">
				<title>Foglio.111</title>
			</g>
			<g id="shape112-266" transform="translate(3.50394,-19.6719)">
				<title>Foglio.112</title>
			</g>
			<g id="shape113-268" transform="translate(3.00394,-20.6719)">
				<title>Foglio.113</title>
			</g>
			<g id="shape114-270" transform="translate(3.00394,-20.6719)">
				<title>Foglio.114</title>
			</g>
			<g id="shape115-272" transform="translate(-438.374,481.223) rotate(-90)">
				<title>Foglio.115</title>
			</g>
			<g id="shape93-274">
				<text x="18.02" y="465.94" class="st9">UserInfo <tspan x="17.04" dy="1.2em" class="st14">Endpoint</tspan></text>			</g>
		</g>
		<g id="group116-277" transform="translate(266.613,-422.057)">
			<title>Attività.116</title>
			<desc>OpenID Provider (OP)</desc>
			<g id="shape117-278">
				<title>Foglio.117</title>
				<rect x="0" y="452.355" width="242.646" height="33.1759" rx="5.66929" ry="5.66929" class="st15"/>
			</g>
			<g id="group118-280">
				<title>Foglio.118</title>
				<g id="shape119-281">
					<title>Foglio.119</title>
					<rect x="0" y="452.355" width="242.646" height="33.1759" rx="2.12598" ry="2.12598" class="st16"/>
				</g>
				<g id="shape120-283" transform="translate(1.8,-1.8)">
					<title>Foglio.120</title>
					<rect x="0" y="455.955" width="239.046" height="29.5759" rx="2.12598" ry="2.12598" class="st16"/>
				</g>
			</g>
			<g id="shape121-285" transform="translate(122.134,-2.12598)">
				<title>Foglio.121</title>
			</g>
			<g id="group122-287" transform="translate(122.494,-2.83465)">
				<title>Foglio.122</title>
				<g id="shape123-288">
					<title>Foglio.123</title>
					<rect x="0" y="474.193" width="11.3386" height="11.3386" class="st3"/>
				</g>
				<g id="shape124-290" transform="translate(2.83465,-2.83465)">
					<title>Foglio.124</title>
				</g>
			</g>
			<g id="shape125-292" transform="translate(122.494,-3.68504)">
				<title>Foglio.125</title>
			</g>
			<g id="shape126-294" transform="translate(123.608,-3.68504)">
				<title>Foglio.126</title>
			</g>
			<g id="group127-296" transform="translate(122.134,-2.83465)">
				<title>Foglio.127</title>
				<g id="shape128-297" transform="translate(9.4603,960.725) rotate(179.753)">
					<title>Foglio.128</title>
				</g>
			</g>
			<g id="shape129-300" transform="translate(3.50394,-19.6719)">
				<title>Foglio.129</title>
			</g>
			<g id="shape130-302" transform="translate(3.00394,-19.1719)">
				<title>Foglio.130</title>
			</g>
			<g id="group131-304" transform="translate(2.50394,-20.6719)">
				<title>Foglio.131</title>
				<g id="shape132-305">
					<title>Foglio.132</title>
					<rect x="0" y="477.531" width="12" height="8" class="st5"/>
				</g>
				<g id="shape133-307" transform="translate(-1.9984E-15,-4.20339)">
					<title>Foglio.133</title>
				</g>
			</g>
			<g id="shape134-309" transform="translate(2.50394,-20.6719)">
				<title>Foglio.134</title>
			</g>
			<g id="shape135-311" transform="translate(3.50394,-19.6719)">
				<title>Foglio.135</title>
			</g>
			<g id="shape136-313" transform="translate(3.00394,-20.6719)">
				<title>Foglio.136</title>
			</g>
			<g id="shape137-315" transform="translate(3.00394,-20.6719)">
				<title>Foglio.137</title>
			</g>
			<g id="shape138-317" transform="translate(-352.91,481.223) rotate(-90)">
				<title>Foglio.138</title>
			</g>
			<g id="shape116-319">
				<text x="76.46" y="471.94" class="st9">OpenID Provider (OP)</text>			</g>
		</g>
		<g id="shape173-321" transform="translate(166.17,-341.004)">
			<title>Cerchio</title>
			<desc>1</desc>
			<path d="M0 473.48 A12.0551 12.0551 0 1 1 24.11 473.48 A12.0551 12.0551 0 0 1 0 473.48 Z" class="st17"/>
			<text x="9.52" y="476.48" class="st18">1</text>		</g>
		<g id="shape179-324" transform="translate(41.9232,-341.004)">
			<title>Cerchio.179</title>
			<path d="M0 473.48 A12.0551 12.0551 0 1 1 24.11 473.48 A12.0551 12.0551 0 0 1 0 473.48 Z" class="st17"/>
		</g>
		<g id="shape180-326" transform="translate(41.9232,-304.379)">
			<title>Cerchio.180</title>
			<desc>2</desc>
			<path d="M0 473.48 A12.0551 12.0551 0 1 1 24.11 473.48 A12.0551 12.0551 0 0 1 0 473.48 Z" class="st17"/>
			<text x="9.52" y="476.48" class="st18">2</text>		</g>
		<g id="shape182-329" transform="translate(166.17,-345.972)">
			<title>Flusso di attività</title>
			<desc>Scelta OP</desc>
			<path d="M0 478.44 L-95.1 478.44" class="st19"/>
			<rect x="-88.774" y="467.009" width="30.6244" height="9.59985" class="st21"/>
			<text x="-88.77" y="474.21" class="st22">Scelta OP</text>		</g>
		<g id="shape183-337" transform="translate(290.417,-304.589)">
			<title>Cerchio.183</title>
			<path d="M0 473.48 A12.0551 12.0551 0 1 1 24.11 473.48 A12.0551 12.0551 0 0 1 0 473.48 Z" class="st17"/>
		</g>
		<g id="shape184-339" transform="translate(66.0334,-309.452)">
			<title>Flusso di attività.184</title>
			<desc>Authorization Request</desc>
			<path d="M0 478.55 L10.53 478.55 a0.104813 0.104813 -180 0 0 0.104813 -0.104813 L10.63 478.44 a0.104813 0.104813 0 0
						 1 0.104813 -0.104813 L219.34 478.34" class="st19"/>
			<rect x="1.60551" y="464.505" width="72.8155" height="9.59985" class="st21"/>
			<text x="1.61" y="471.7" class="st22">Authorization Request</text>		</g>
		<g id="shape185-346" transform="translate(290.417,-268.809)">
			<title>Cerchio.185</title>
			<desc>3</desc>
			<path d="M0 473.48 A12.0551 12.0551 0 1 1 24.11 473.48 A12.0551 12.0551 0 0 1 0 473.48 Z" class="st17"/>
			<text x="9.52" y="476.48" class="st18">3</text>		</g>
		<g id="shape187-349" transform="translate(166.17,-268.809)">
			<title>Cerchio.187</title>
			<path d="M0 473.48 A12.0551 12.0551 0 1 1 24.11 473.48 A12.0551 12.0551 0 0 1 0 473.48 Z" class="st17"/>
		</g>
		<g id="shape339-351" transform="translate(290.417,-273.777)">
			<title>Flusso di attività.339</title>
			<desc>User Authentication Autorizzazione Invio Attributi</desc>
			<path d="M0 478.44 L-95.1 478.44" class="st19"/>
			<rect x="-97.7792" y="452.377" width="94.9444" height="19.1997" class="st21"/>
			<text x="-83.01" y="459.58" class="st22">User Authentication  <tspan x="-97.78" dy="1.2em" class="st14">Autorizzazione Invio Attributi</tspan></text>		</g>
		<g id="shape340-359" transform="translate(166.17,-230.374)">
			<title>Cerchio.340</title>
			<path d="M0 473.48 A12.0551 12.0551 0 1 1 24.11 473.48 A12.0551 12.0551 0 0 1 0 473.48 Z" class="st17"/>
		</g>
		<g id="shape342-361" transform="translate(190.28,-235.368)">
			<title>Flusso di attività.342</title>
			<path d="M0 478.47 L10.6 478.47 a0.0250682 0.0250682 -180 0 0 0.0250682 -0.0250682 L10.63 478.44 a0.0250682 0.0250682
						 0 0 1 0.0250682 -0.0250682 L95.1 478.42" class="st19"/>
		</g>
		<g id="shape344-366" transform="translate(159.083,-280.864)">
			<title>Connettore dinamico</title>
			<path d="M7.09 485.53 L-9.33 485.53 A8.50394 8.50394 -180 0 0 -17.83 494.04 L-17.83 515.46 A8.50394 8.50394 -180 0 0
						 -9.33 523.97 L1.49 523.97" class="st23"/>
		</g>
		<g id="shape341-372" transform="translate(290.417,-230.424)">
			<title>Cerchio.341</title>
			<path d="M0 473.48 A12.0551 12.0551 0 1 1 24.11 473.48 A12.0551 12.0551 0 0 1 0 473.48 Z" class="st17"/>
		</g>
		<g id="shape345-374" transform="translate(307.44,-242.479)">
			<title>Connettore dinamico.345</title>
			<path d="M7.09 485.53 L17.97 485.53 A8.50394 8.50394 -180 0 0 26.48 477.03 L26.48 455.65 A8.50394 8.50394 -180 0 0 17.97
						 447.15 L12.69 447.15" class="st23"/>
		</g>
		<g id="shape346-379" transform="translate(290.417,-192.628)">
			<title>Cerchio.346</title>
			<desc>4</desc>
			<path d="M0 473.48 A12.0551 12.0551 0 1 1 24.11 473.48 A12.0551 12.0551 0 0 1 0 473.48 Z" class="st17"/>
			<text x="9.52" y="476.48" class="st18">4</text>		</g>
		<g id="shape347-382" transform="translate(41.9232,-192.628)">
			<title>Cerchio.347</title>
			<path d="M0 473.48 A12.0551 12.0551 0 1 1 24.11 473.48 A12.0551 12.0551 0 0 1 0 473.48 Z" class="st17"/>
		</g>
		<g id="shape348-384" transform="translate(290.417,-197.596)">
			<title>Flusso di attività.348</title>
			<desc>Redirect Message</desc>
			<path d="M0 478.44 L-219.34 478.44" class="st19"/>
			<rect x="-62.1287" y="466.035" width="57.6593" height="9.59985" class="st21"/>
			<text x="-62.13" y="473.23" class="st22">Redirect Message</text>		</g>
		<g id="shape349-391" transform="translate(41.9232,-154.884)">
			<title>Cerchio.349</title>
			<desc>5</desc>
			<path d="M0 473.48 A12.0551 12.0551 0 1 1 24.11 473.48 A12.0551 12.0551 0 0 1 0 473.48 Z" class="st17"/>
			<text x="9.52" y="476.48" class="st18">5</text>		</g>
		<g id="shape350-394" transform="translate(375.881,-154.98)">
			<title>Cerchio.350</title>
			<path d="M0 473.48 A12.0551 12.0551 0 1 1 24.11 473.48 A12.0551 12.0551 0 0 1 0 473.48 Z" class="st17"/>
		</g>
		<g id="shape351-396" transform="translate(66.0334,-159.901)">
			<title>Flusso di attività.351</title>
			<desc>Authorization Code</desc>
			<path d="M0 478.49 L299.17 478.49 a0.048227 0.048227 -180 0 0 0.048227 -0.048227 L299.22 478.44 a0.048227 0.048227 0
						 0 1 0.048227 -0.048227 L304.81 478.4" class="st19"/>
			<rect x="9.36574" y="465.756" width="62.9643" height="9.59985" class="st21"/>
			<text x="9.37" y="472.96" class="st22">Authorization Code</text>		</g>
		<g id="shape352-403" transform="translate(41.9338,-119.883)">
			<title>Cerchio.352</title>
			<path d="M0 473.48 A12.0551 12.0551 0 1 1 24.11 473.48 A12.0551 12.0551 0 0 1 0 473.48 Z" class="st17"/>
		</g>
		<g id="shape353-405" transform="translate(375.892,-119.979)">
			<title>Cerchio.353</title>
			<desc>6</desc>
			<path d="M0 473.48 A12.0551 12.0551 0 1 1 24.11 473.48 A12.0551 12.0551 0 0 1 0 473.48 Z" class="st17"/>
			<text x="9.52" y="476.48" class="st18">6</text>		</g>
		<g id="shape354-408" transform="translate(375.892,-139.073)">
			<title>Flusso di attività.354</title>
			<desc>Access Token and ID Token</desc>
			<path d="M0 492.57 L-304.81 492.66" class="st19"/>
			<rect x="-104.11" y="481.212" width="89.7262" height="9.59985" class="st21"/>
			<text x="-104.11" y="488.41" class="st22">Access Token and  ID Token</text>		</g>
		<g id="shape355-415" transform="translate(42.2873,-83.2283)">
			<title>Cerchio.355</title>
			<desc>7</desc>
			<path d="M0 473.48 A12.0551 12.0551 0 1 1 24.11 473.48 A12.0551 12.0551 0 0 1 0 473.48 Z" class="st17"/>
			<text x="9.52" y="476.48" class="st18">7</text>		</g>
		<g id="shape356-418" transform="translate(461.346,-83.9212)">
			<title>Cerchio.356</title>
			<path d="M0 473.48 A12.0551 12.0551 0 1 1 24.11 473.48 A12.0551 12.0551 0 0 1 0 473.48 Z" class="st17"/>
		</g>
		<g id="shape357-420" transform="translate(66.3976,-88.5432)">
			<title>Flusso di attività.357</title>
			<desc>Access Token</desc>
			<path d="M0 478.79 L389.91 478.11" class="st19"/>
			<rect x="15.9598" y="467.533" width="43.3784" height="9.59985" class="st21"/>
			<text x="15.96" y="474.73" class="st22">Access Token</text>		</g>
		<g id="shape358-427" transform="translate(41.8551,-48.2275)">
			<title>Cerchio.358</title>
			<path d="M0 473.48 A12.0551 12.0551 0 1 1 24.11 473.48 A12.0551 12.0551 0 0 1 0 473.48 Z" class="st17"/>
		</g>
		<g id="shape359-429" transform="translate(460.913,-48.9204)">
			<title>Cerchio.359</title>
			<desc>8</desc>
			<path d="M0 473.48 A12.0551 12.0551 0 1 1 24.11 473.48 A12.0551 12.0551 0 0 1 0 473.48 Z" class="st17"/>
			<text x="9.52" y="476.48" class="st18">8</text>		</g>
		<g id="shape360-432" transform="translate(460.913,-67.7157)">
			<title>Flusso di attività.360</title>
			<desc>Claims</desc>
			<path d="M0 492.27 L-389.91 492.96" class="st19"/>
			<rect x="-27.3538" y="480.721" width="21.2888" height="9.59985" class="st21"/>
			<text x="-27.35" y="487.92" class="st22">Claims</text>		</g>
	</g>
</svg>
